<svg xmlns="http://www.w3.org/2000/svg" viewBox="0 0 100 100" fill="none">
  <!-- Deep Blue Background -->
  <rect width="100" height="100" rx="20" fill="#1b61a3" />
  
  <!-- Wave -->
  <path d="M0,60 C20,70 40,40 60,60 C80,80 100,50 100,50 L100,100 L0,100 Z" fill="#75cbf0" />
  <path d="M0,80 C25,90 45,60 60,80 C75,100 95,70 100,80 L100,100 L0,100 Z" fill="#42bdf5" />

  <!-- Droplet -->
  <path d="M50,20 C50,20 35,45 35,55 C35,63.284 41.716,70 50,70 C58.284,70 65,63.284 65,55 C65,45 50,20 50,20 Z" fill="#ffffff" />
</svg>
